<svg id="Livello_1" data-name="Livello 1" xmlns="http://www.w3.org/2000/svg" viewBox="0 0 80 80"><defs><style>.cls-1{fill:#2d2d2c;}</style></defs><path class="cls-1" d="M39.86,14.56c8.37,0,9.36,0,12.66.18a17.28,17.28,0,0,1,5.82,1.08,10.38,10.38,0,0,1,6,5.95,17.34,17.34,0,0,1,1.07,5.81c.16,3.31.19,4.3.19,12.66s0,9.36-.19,12.66a17.35,17.35,0,0,1-1.07,5.82,10.46,10.46,0,0,1-6,6,17.62,17.62,0,0,1-5.82,1.07c-3.3.15-4.29.19-12.66.19s-9.35,0-12.66-.19a17.6,17.6,0,0,1-5.81-1.07,10.38,10.38,0,0,1-6-6,17.28,17.28,0,0,1-1.08-5.82c-.15-3.3-.18-4.29-.18-12.66s0-9.35.18-12.66a17.27,17.27,0,0,1,1.08-5.81,10.3,10.3,0,0,1,6-5.95,17.27,17.27,0,0,1,5.81-1.08c3.31-.15,4.3-.18,12.66-.18m0-5.65c-8.51,0-9.57,0-12.91.19a22.78,22.78,0,0,0-7.61,1.46,16,16,0,0,0-9.16,9.16,23,23,0,0,0-1.46,7.61c-.15,3.34-.19,4.4-.19,12.91s0,9.58.19,12.92a23,23,0,0,0,1.46,7.6,16,16,0,0,0,9.16,9.17A23.06,23.06,0,0,0,27,71.38c3.34.16,4.4.19,12.91.19s9.58,0,12.92-.19a23.05,23.05,0,0,0,7.6-1.45,16.09,16.09,0,0,0,9.17-9.17A23.05,23.05,0,0,0,71,53.16c.16-3.34.19-4.41.19-12.92s0-9.57-.19-12.91a23.06,23.06,0,0,0-1.45-7.61,16,16,0,0,0-9.17-9.16,22.77,22.77,0,0,0-7.6-1.46c-3.34-.15-4.41-.19-12.92-.19Z"/><path class="cls-1" d="M39.86,24.15A16.09,16.09,0,1,0,56,40.24,16.09,16.09,0,0,0,39.86,24.15Zm0,26.54A10.45,10.45,0,1,1,50.31,40.24,10.45,10.45,0,0,1,39.86,50.69Z"/><circle class="cls-1" cx="56.59" cy="23.52" r="3.76"/></svg>