<?xml version="1.0" encoding="utf-8"?>
<!-- Generator: Adobe Illustrator 26.0.2, SVG Export Plug-In . SVG Version: 6.00 Build 0)  -->
<svg version="1.1" xmlns="http://www.w3.org/2000/svg" xmlns:xlink="http://www.w3.org/1999/xlink" x="0px" y="0px"
	 viewBox="0 0 1920 1080" style="enable-background:new 0 0 1920 1080;" xml:space="preserve">
<style type="text/css">
	.st0{fill:#2D2D2C;}
	.st1{opacity:0.1;clip-path:url(#SVGID_00000113319038578825358710000012384675742544969663_);}
	.st2{fill:none;stroke:#81817F;stroke-width:2.8346;stroke-miterlimit:10;}
</style>
<g id="Livello_2">
	<path id="Tracciato_31" class="st0" d="M0,80.48h1920v999.42H0V80.48z"/>
</g>
<g id="Livello_1">
	<g>
		<defs>
			<rect id="SVGID_1_" y="80.43" width="1924.66" height="999.52"/>
		</defs>
		<clipPath id="SVGID_00000121964876176826211240000014511693913114427538_">
			<use xlink:href="#SVGID_1_"  style="overflow:visible;"/>
		</clipPath>
		<g style="opacity:0.1;clip-path:url(#SVGID_00000121964876176826211240000014511693913114427538_);">
			<circle class="st2" cx="637.87" cy="448.06" r="132.23"/>
			<circle class="st2" cx="866.21" cy="448.06" r="132.23"/>
			<circle class="st2" cx="1094.55" cy="448.06" r="132.23"/>
			<circle class="st2" cx="1322.89" cy="448.06" r="132.23"/>
			<circle class="st2" cx="1551.23" cy="448.06" r="132.23"/>
			<circle class="st2" cx="1779.57" cy="448.06" r="132.23"/>
			<circle class="st2" cx="2007.91" cy="448.06" r="132.23"/>
			<circle class="st2" cx="2236.25" cy="448.06" r="132.23"/>
			<circle class="st2" cx="2464.58" cy="448.06" r="132.23"/>
			<path class="st2" d="M477.83,516.76l0.09,28.85c0,6.76,7.79,10.51,13.11,6.34c30.82-24.19,50.62-61.78,50.62-104
				c0-75.33-63.04-135.94-139.25-131.94c-68.12,3.58-122.77,59.47-124.93,127.64c-1.39,43.71,18.47,82.84,50.02,107.86
				c5.33,4.23,13.18,0.53,13.18-6.28V402.66h23.03c7.22,0,14.15,2.9,19.22,8.04l87.13,87.11
				C475.04,502.86,477.83,509.67,477.83,516.76z"/>
			<circle class="st2" cx="-1417.28" cy="448.06" r="132.23"/>
			<circle class="st2" cx="-1188.94" cy="448.06" r="132.23"/>
			<circle class="st2" cx="-960.6" cy="448.06" r="132.23"/>
			<circle class="st2" cx="-732.26" cy="448.06" r="132.23"/>
			<circle class="st2" cx="-503.92" cy="448.06" r="132.23"/>
			<circle class="st2" cx="-275.58" cy="448.06" r="132.23"/>
			<circle class="st2" cx="-47.24" cy="448.06" r="132.23"/>
			<circle class="st2" cx="181.1" cy="448.06" r="132.23"/>
			<path class="st2" d="M474.91,504.55c-21.59-30.46-78.13-27.94-78.13-27.94s0-53.61-16.51-68.26"/>
		</g>
		<g style="opacity:0.1;clip-path:url(#SVGID_00000121964876176826211240000014511693913114427538_);">
			<circle class="st2" cx="976.25" cy="183.6" r="132.23"/>
			<circle class="st2" cx="1204.58" cy="183.6" r="132.23"/>
			<circle class="st2" cx="1432.92" cy="183.6" r="132.23"/>
			<circle class="st2" cx="1661.26" cy="183.6" r="132.23"/>
			<circle class="st2" cx="1889.6" cy="183.6" r="132.23"/>
			<circle class="st2" cx="2117.94" cy="183.6" r="132.23"/>
			<circle class="st2" cx="2346.28" cy="183.6" r="132.23"/>
			<circle class="st2" cx="2574.62" cy="183.6" r="132.23"/>
			<circle class="st2" cx="2802.96" cy="183.6" r="132.23"/>
			<path class="st2" d="M816.2,252.31l0.09,28.85c0,6.76,7.79,10.51,13.11,6.34c30.82-24.19,50.62-61.78,50.62-104
				c0-75.33-63.04-135.94-139.25-131.94c-68.12,3.58-122.77,59.47-124.93,127.64c-1.39,43.71,18.47,82.84,50.02,107.86
				c5.33,4.23,13.18,0.53,13.18-6.28V138.21h23.03c7.22,0,14.15,2.9,19.22,8.04l87.13,87.11
				C813.41,238.41,816.2,245.22,816.2,252.31z"/>
			<circle class="st2" cx="-1078.9" cy="183.6" r="132.23"/>
			<circle class="st2" cx="-850.57" cy="183.6" r="132.23"/>
			<circle class="st2" cx="-622.23" cy="183.6" r="132.23"/>
			<circle class="st2" cx="-393.89" cy="183.6" r="132.23"/>
			<circle class="st2" cx="-165.55" cy="183.6" r="132.23"/>
			<circle class="st2" cx="62.79" cy="183.6" r="132.23"/>
			<circle class="st2" cx="291.13" cy="183.6" r="132.23"/>
			<circle class="st2" cx="519.47" cy="183.6" r="132.23"/>
			<path class="st2" d="M813.28,240.09c-21.59-30.46-78.13-27.94-78.13-27.94s0-53.61-16.51-68.26"/>
		</g>
		<g style="opacity:0.1;clip-path:url(#SVGID_00000121964876176826211240000014511693913114427538_);">
			<circle class="st2" cx="1205.68" cy="712.52" r="132.23"/>
			<circle class="st2" cx="1434.02" cy="712.52" r="132.23"/>
			<circle class="st2" cx="1662.36" cy="712.52" r="132.23"/>
			<circle class="st2" cx="1890.7" cy="712.52" r="132.23"/>
			<circle class="st2" cx="2119.04" cy="712.52" r="132.23"/>
			<circle class="st2" cx="2347.38" cy="712.52" r="132.23"/>
			<circle class="st2" cx="2575.71" cy="712.52" r="132.23"/>
			<circle class="st2" cx="2804.05" cy="712.52" r="132.23"/>
			<circle class="st2" cx="3032.39" cy="712.52" r="132.23"/>
			<path class="st2" d="M1045.64,781.22l0.09,28.85c0,6.76,7.79,10.51,13.11,6.34c30.82-24.19,50.62-61.78,50.62-104
				c0-75.33-63.04-135.94-139.25-131.94c-68.12,3.58-122.77,59.47-124.93,127.64c-1.39,43.71,18.47,82.84,50.02,107.86
				c5.33,4.23,13.18,0.53,13.18-6.28V667.12h23.03c7.22,0,14.15,2.9,19.22,8.04l87.13,87.11
				C1042.85,767.32,1045.64,774.13,1045.64,781.22z"/>
			<circle class="st2" cx="-849.47" cy="712.52" r="132.23"/>
			<circle class="st2" cx="-621.13" cy="712.52" r="132.23"/>
			<circle class="st2" cx="-392.79" cy="712.52" r="132.23"/>
			<circle class="st2" cx="-164.45" cy="712.52" r="132.23"/>
			<circle class="st2" cx="63.89" cy="712.52" r="132.23"/>
			<circle class="st2" cx="292.22" cy="712.52" r="132.23"/>
			<circle class="st2" cx="520.56" cy="712.52" r="132.23"/>
			<circle class="st2" cx="748.9" cy="712.52" r="132.23"/>
			<path class="st2" d="M1042.72,769.01c-21.59-30.46-78.13-27.94-78.13-27.94s0-53.61-16.51-68.26"/>
		</g>
		<g style="opacity:0.1;clip-path:url(#SVGID_00000121964876176826211240000014511693913114427538_);">
			<circle class="st2" cx="403.24" cy="976.97" r="132.23"/>
			<circle class="st2" cx="631.58" cy="976.97" r="132.23"/>
			<circle class="st2" cx="859.92" cy="976.97" r="132.23"/>
			<circle class="st2" cx="1088.26" cy="976.97" r="132.23"/>
			<circle class="st2" cx="1316.6" cy="976.97" r="132.23"/>
			<circle class="st2" cx="1544.94" cy="976.97" r="132.23"/>
			<circle class="st2" cx="1773.28" cy="976.97" r="132.23"/>
			<circle class="st2" cx="2001.61" cy="976.97" r="132.23"/>
			<circle class="st2" cx="2229.95" cy="976.97" r="132.23"/>
			<path class="st2" d="M243.2,1045.68l0.09,28.85c0,6.76,7.79,10.51,13.11,6.34c30.82-24.19,50.62-61.78,50.62-104
				c0-75.33-63.04-135.94-139.25-131.94C99.66,848.51,45.01,904.4,42.85,972.58c-1.39,43.71,18.47,82.84,50.02,107.86
				c5.33,4.23,13.18,0.53,13.18-6.28V931.58h23.03c7.22,0,14.15,2.9,19.22,8.04l87.13,87.11
				C240.41,1031.77,243.2,1038.58,243.2,1045.68z"/>
			<circle class="st2" cx="-1651.91" cy="976.97" r="132.23"/>
			<circle class="st2" cx="-1423.57" cy="976.97" r="132.23"/>
			<circle class="st2" cx="-1195.23" cy="976.97" r="132.23"/>
			<circle class="st2" cx="-966.89" cy="976.97" r="132.23"/>
			<circle class="st2" cx="-738.55" cy="976.97" r="132.23"/>
			<circle class="st2" cx="-510.21" cy="976.97" r="132.23"/>
			<circle class="st2" cx="-281.88" cy="976.97" r="132.23"/>
			<circle class="st2" cx="-53.54" cy="976.97" r="132.23"/>
			<path class="st2" d="M240.28,1033.46c-21.59-30.46-78.13-27.94-78.13-27.94s0-53.61-16.51-68.26"/>
		</g>
	</g>
</g>
</svg>
