<svg width="80" height="80" viewBox="0 0 80 80" fill="none" xmlns="http://www.w3.org/2000/svg">
<circle cx="40" cy="40" r="40" fill="#CC2C2E"/>
<path d="M32.7623 66.9129L35.4103 56.8643C36.7671 59.5027 40.8 61.7295 45.0856 61.7295C57.8207 61.7295 67 50.0061 67 35.4291C67 21.4416 55.5937 11 40.9404 11C22.6753 11 13 23.2473 13 36.5706C13 42.8018 16.3031 50.4927 21.5898 52.9627C22.3946 53.3463 22.8437 53.1686 23.0215 52.4107C23.1618 51.8119 23.8917 48.9302 24.2005 47.6016C24.265 47.3921 24.273 47.1693 24.2237 46.9557C24.1744 46.7421 24.0696 46.5453 23.9198 46.3853C21.8941 43.5832 20.8008 40.2152 20.7945 36.7577C20.7945 27.4015 27.8591 18.4195 39.8924 18.4195C50.2975 18.4195 57.5774 25.4835 57.5774 35.6069C57.5774 47.0215 51.7947 54.9556 44.2809 54.9556C40.1357 54.9556 37.0104 51.5125 38.021 47.3022C39.2374 42.2592 41.5299 36.8232 41.5299 33.2117C41.5299 29.9744 39.7895 27.2611 36.1683 27.2611C31.9295 27.2611 28.5141 31.6399 28.5141 37.553C28.4889 39.7042 28.9161 41.8368 29.768 43.8123C29.768 43.8123 25.5947 61.4862 24.8274 64.8264C23.9946 68.4754 24.3034 73.6213 24.6871 76.9895C25.6228 77.3544 26.5585 77.7006 27.5503 78C29.2908 75.1183 31.8265 70.5712 32.7623 66.9129Z" fill="white"/>
</svg>
