<svg id="Livello_1" data-name="Livello 1" xmlns="http://www.w3.org/2000/svg" viewBox="0 0 80 80"><defs><style>.cls-1{fill:#2d2d2c;}</style></defs><path class="cls-1" d="M31.89,64.23l2.83-10.74c1.45,2.82,5.76,5.2,10.34,5.2,13.61,0,23.42-12.53,23.42-28.11,0-14.95-12.19-26.11-27.85-26.11-19.52,0-29.86,13.09-29.86,27.33,0,6.66,3.53,14.88,9.18,17.52.86.41,1.34.22,1.53-.59.15-.64.93-3.72,1.26-5.14a1.33,1.33,0,0,0-.3-1.3A17.62,17.62,0,0,1,19.1,32c0-10,7.55-19.6,20.41-19.6,11.12,0,18.9,7.55,18.9,18.37,0,12.2-6.18,20.68-14.21,20.68-4.43,0-7.77-3.68-6.69-8.18,1.3-5.39,3.75-11.2,3.75-15.06,0-3.46-1.86-6.36-5.73-6.36-4.53,0-8.18,4.68-8.18,11a16.41,16.41,0,0,0,1.34,6.69S24.23,58.43,23.41,62c-.89,3.9-.56,9.4-.15,13,1,.39,2,.76,3.06,1.08C28.18,73,30.89,68.14,31.89,64.23Z"/></svg>