<svg id="Livello_1" data-name="Livello 1" xmlns="http://www.w3.org/2000/svg" viewBox="0 0 80 80"><defs><style>.cls-1{fill:#2d2d2c;}</style></defs><path class="cls-1" d="M72.3,24.34q-.45,9.84-13.74,26.94Q44.81,69.15,35.3,69.15q-5.89,0-10-10.88-2.71-10-5.44-20-3-10.87-6.49-10.88-.77,0-5.29,3.17L4.93,26.53q5-4.38,9.84-8.77c4.43-3.83,7.77-5.85,10-6.05q7.88-.77,9.69,10.75,2,12.42,2.73,15.45,2.27,10.31,5,10.3,2.12,0,6.36-6.69t4.53-10.17c.41-3.85-1.11-5.77-4.53-5.77a12.66,12.66,0,0,0-5,1.1q5-16.27,19-15.82Q72.91,11.18,72.3,24.34Z"/></svg>